<?xml version="1.0" encoding="UTF-8" standalone="no"?>
<svg
   id="Layer_1"
   data-name="Layer 1"
   viewBox="0 0 293 91"
   version="1.1"
   sodipodi:docname="BPay495x167.svg"
   inkscape:version="1.3.2 (091e20e, 2023-11-25, custom)"
   width="293"
   height="91"
   xmlns:inkscape="http://www.inkscape.org/namespaces/inkscape"
   xmlns:sodipodi="http://sodipodi.sourceforge.net/DTD/sodipodi-0.dtd"
   xmlns="http://www.w3.org/2000/svg"
   xmlns:svg="http://www.w3.org/2000/svg">
  <sodipodi:namedview
     id="namedview6"
     pagecolor="#ffffff"
     bordercolor="#000000"
     borderopacity="0.25"
     inkscape:showpageshadow="2"
     inkscape:pageopacity="0.0"
     inkscape:pagecheckerboard="0"
     inkscape:deskcolor="#d1d1d1"
     inkscape:zoom="1.7267548"
     inkscape:cx="244.38907"
     inkscape:cy="145.35938"
     inkscape:window-width="1764"
     inkscape:window-height="1032"
     inkscape:window-x="1601"
     inkscape:window-y="1284"
     inkscape:window-maximized="0"
     inkscape:current-layer="Layer_1" />
  <defs
     id="defs1">
    <style
       id="style1">
      .cls-1, .cls-2 {
        stroke-width: 0px;
      }

      .cls-2 {
        fill: #ffae00;
      }
    </style>
  </defs>
  <g
     id="g6"
     transform="matrix(0.17041259,0,0,0.17041259,25.215364,-0.97701277)">
    <g
       id="g4"
       transform="translate(-288.28829,-727.27273)">
      <path
         class="cls-2"
         d="m 1642.38,928.19 -60.94,167.5 -72.01,-167.55 h -60.72 l 101.1,238.39 c -11.48,31.77 -43.32,36.42 -77.11,35.93 v 61.21 c 66.98,2.97 117.37,-25.69 140.85,-89.49 l 89.63,-246 h -60.81 z"
         id="path1" />
      <path
         class="cls-2"
         d="m 1363.36,928.16 v 35.87 c -18.56,-23.52 -42.78,-35.87 -76.38,-35.87 -65.86,-1.3 -118.82,61.58 -116.83,127.71 -2.03,66.62 50.58,129 116.83,127.7 33.6,0 57.81,-12.44 76.38,-36.01 v 36.01 h 61.21 V 928.16 Z m -19.38,176.51 c -42.04,39.33 -113.99,12.86 -112.38,-47.63 -0.69,-37.43 27.8,-66.39 65.44,-65.89 60.69,-1.4 87.22,73.15 46.94,113.53 z"
         id="path2" />
      <path
         class="cls-2"
         d="m 1114.17,970.79 c -70.58,-80.78 -204.78,-39.94 -220.81,64.91 -4.02,65.91 -0.79,149.13 -1.98,228.37 h 61.25 l 0.49,-99.04 c 72.07,45.31 172.77,3.38 190.24,-80.33 1.79,-9 2.68,-18.41 2.68,-28.21 0.15,-33.42 -9.78,-60.78 -31.86,-85.7 z m -152.81,118.73 c -25.02,-42.34 8.17,-99.14 57.67,-98.24 36.33,0 66.04,29.73 66.04,66.06 -0.4,67.91 -91.91,91.73 -123.7,32.18 z"
         id="path3" />
      <path
         class="cls-1"
         d="m 864.29,1026.96 v -0.05 C 846.82,943.33 746.07,901.59 674.05,946.76 V 848.32 H 612.8 c 0,65.47 -0.05,150.84 -0.05,201.77 -1.24,38.31 13.6,75.49 42.73,100.7 94.05,81.64 234.11,-0.84 208.8,-123.83 z m -124.08,95.82 c -49.43,0.94 -82.59,-55.89 -57.62,-98.22 11.86,-23.53 37.67,-36.53 64.47,-33.45 82.14,10.92 76.58,128.84 -6.85,131.67 z"
         id="path4" />
    </g>
    <path
       class="cls-2"
       d="m 263.00171,328.73727 v 63.92 c 0,5.43 -0.66,10.69 -1.93,15.72 -2.14,8.55 -6.01,16.4 -11.2,23.19 -1.71,2.22 -3.54,4.32 -5.5,6.31 -3.78,3.8 -8.04,7.11 -12.68,9.86 -7.7,4.58 -16.45,7.57 -25.8,8.52 h -0.01 c -2.13,0.23 -4.3,0.34 -6.5,0.34 -17.56,0 -33.47,-7.16 -44.97,-18.72 -11.52,-11.58 -18.63,-27.55 -18.63,-45.21 0,-2.2 0.11,-4.38 0.32,-6.52 0.95,-9.4 3.92,-18.18 8.48,-25.94 4.16,-7.07 9.63,-13.28 16.09,-18.27 6.76,-5.2 14.59,-9.08 23.09,-11.24 4.99,-1.28 10.23,-1.96 15.62,-1.96 h 63.63 z"
       id="path5" />
    <path
       class="cls-1"
       d="m 259.12171,104.95727 c -4.29,-17.069997 -12.02,-32.779997 -22.38,-46.319997 -9.92,-12.96 -22.27,-23.96 -36.36,-32.3 -15.42,-9.16 -32.92,-15.12 -51.62,-17.0099999 -4.26,-0.44 -8.59,-0.66 -12.98,-0.66 -35.14,0 -66.939998,14.2799999 -89.979998,37.3899999 -23.02,23.08 -37.2700001,55.009997 -37.2700001,90.259997 0,4.4 0.23,8.76 0.66,13.05 v 0 c 1.8900001,18.78 7.8400001,36.35 16.9500001,51.8 5.47,9.3 12.09,17.85 19.65,25.43 3.94,3.95 8.12,7.63 12.55,11.04 13.5,10.42 29.14,18.17 46.149998,22.48 10,2.55 20.48,3.89 31.27,3.89 h 127.23 v -127.69 c 0,-10.81 -1.34,-21.33 -3.88,-31.35 z m -57.51,98.77 h -65.51 c -5.56,0 -10.95,-0.69 -16.11,-2.01 -8.76,-2.23 -16.8,-6.24 -23.759998,-11.63 -2.28,-1.77 -4.43,-3.68 -6.46,-5.71 -3.89,-3.93 -7.29,-8.35 -10.11,-13.17 -4.69,-8 -7.76,-17.08 -8.73,-26.79 v 0 c -0.23,-2.23 -0.35,-4.48 -0.35,-6.77 0,-18.24 7.33,-34.76 19.19,-46.699997 11.869998,-11.97 28.239998,-19.35 46.329998,-19.35 2.25,0 4.49,0.12 6.68,0.34 9.63,0.98 18.64,4.07 26.58,8.8 7.25,4.32 13.61,10 18.72,16.71 5.33,7.019997 9.31,15.149997 11.52,23.979997 1.31,5.19 2,10.62 2,16.22 v 66.08 z"
       id="path6" />
  </g>
</svg>
